<svg width="48" height="48" viewBox="0 0 48 48" fill="none" xmlns="http://www.w3.org/2000/svg">
<path d="M5.75 23.1652C7.79743 22.1415 6.77371 23.1652 7.79743 21.1178C8.82114 23.1652 7.79743 22.1415 9.84485 23.1652C7.79743 24.1889 8.82114 23.1652 7.79743 25.2126C6.77371 23.1652 7.79743 24.1889 5.75 23.1652Z" fill="url(#paint0_diamond_1_154)"/>
<path d="M9.93369 14.1583C11.4671 13.3916 10.7004 14.1583 11.4671 12.6249C12.2339 14.1583 11.4671 13.3916 13.0006 14.1583C11.4671 14.9251 12.2339 14.1583 11.4671 15.6918C10.7004 14.1583 11.4671 14.9251 9.93369 14.1583Z" fill="url(#paint1_diamond_1_154)" fill-opacity="0.74"/>
<path d="M20.8723 7.61565C22.4057 6.84893 21.639 7.61565 22.4057 6.0822C23.1724 7.61565 22.4057 6.84893 23.9392 7.61565C22.4057 8.38238 23.1724 7.61565 22.4057 9.14911C21.639 7.61565 22.4057 8.38238 20.8723 7.61565Z" fill="url(#paint2_diamond_1_154)" fill-opacity="0.78"/>
<path d="M35.9513 0.766117C36.718 0.382753 36.3346 0.766117 36.718 -0.000610352C37.1014 0.766117 36.718 0.382753 37.4847 0.766117C36.718 1.14948 37.1014 0.766117 36.718 1.53284C36.3346 0.766117 36.718 1.14948 35.9513 0.766117Z" fill="url(#paint3_diamond_1_154)"/>
<path d="M6.86678 24.8925C13.512 20.2922 14.5343 19.2699 19.1344 12.6249C23.735 19.2699 24.7573 20.2922 31.402 24.8925C24.7573 29.4929 23.735 30.5152 19.1344 37.1602C14.5343 30.5152 13.512 29.4929 6.86678 24.8925Z" fill="url(#paint4_linear_1_154)"/>
<path d="M27.3131 35.1156C30.6357 32.8154 31.1468 32.3042 33.4469 28.9818C35.7472 32.3042 36.2584 32.8154 39.5807 35.1156C36.2584 37.4158 35.7472 37.9269 33.4469 41.2494C31.1468 37.9269 30.6357 37.4158 27.3131 35.1156Z" fill="url(#paint5_linear_1_154)"/>
<path d="M27.3131 14.6695C30.6357 12.3693 31.1468 11.8582 33.4469 8.53569C35.7472 11.8582 36.2584 12.3693 39.5807 14.6695C36.2584 16.9697 35.7472 17.4808 33.4469 20.8033C31.1468 17.4808 30.6357 16.9697 27.3131 14.6695Z" fill="url(#paint6_linear_1_154)"/>
<path d="M36.9225 14.0561C38.9671 13.0338 37.9448 14.0561 38.9671 12.0115C39.9894 14.0561 38.9671 13.0338 41.0117 14.0561C38.9671 15.0784 39.9894 14.0561 38.9671 16.1007C37.9448 14.0561 38.9671 15.0784 36.9225 14.0561Z" fill="url(#paint7_diamond_1_154)"/>
<path d="M38.3537 34.8089C39.376 34.2977 38.8649 34.8089 39.376 33.7866C39.8872 34.8089 39.376 34.2977 40.3983 34.8089C39.376 35.32 39.8872 34.8089 39.376 35.8312C38.8649 34.8089 39.376 35.32 38.3537 34.8089Z" fill="url(#paint8_diamond_1_154)" fill-opacity="0.5"/>
<path d="M44.692 8.02455C45.7143 7.51339 45.2031 8.02455 45.7143 7.00224C46.2254 8.02455 45.7143 7.51339 46.7366 8.02455C45.7143 8.5357 46.2254 8.02455 45.7143 9.04685C45.2031 8.02455 45.7143 8.5357 44.692 8.02455Z" fill="url(#paint9_diamond_1_154)" fill-opacity="0.5"/>
<path d="M38.3537 34.2977C39.376 33.7866 38.8649 34.2977 39.376 33.2754C39.8872 34.2977 39.376 33.7866 40.3983 34.2977C39.376 34.8089 39.8872 34.2977 39.376 35.32C38.8649 34.2977 39.376 34.8089 38.3537 34.2977Z" fill="url(#paint10_diamond_1_154)" fill-opacity="0.7"/>
<path d="M44.692 7.51339C45.7143 7.00224 45.2031 7.51339 45.7143 6.49109C46.2254 7.51339 45.7143 7.00224 46.7366 7.51339C45.7143 8.02454 46.2254 7.51339 45.7143 8.5357C45.2031 7.51339 45.7143 8.02454 44.692 7.51339Z" fill="url(#paint11_diamond_1_154)" fill-opacity="0.5"/>
<path d="M30.3027 23.3064C33.8397 22.2915 36.8539 21.707 38.8838 21.6422C40.9137 21.5774 41.8476 22.0359 41.5425 22.9476C41.2374 23.8593 39.7101 25.1739 37.1945 26.6902C34.6788 28.2065 31.3133 29.8411 27.613 31.3436C23.9128 32.8462 20.0817 34.134 16.706 35.0099C13.3304 35.8859 10.5962 36.3017 8.92189 36.1938C7.2476 36.0858 6.72547 35.4601 7.43541 34.4123C8.14535 33.3646 10.0482 31.9525 12.8529 30.3922" stroke="url(#paint12_linear_1_154)" stroke-width="1.53345" stroke-linecap="round"/>
<path d="M5.02245 29.4929C6.5566 28.7258 5.78953 29.4929 6.55661 27.9587C7.32368 29.4929 6.5566 28.7258 8.09077 29.4929C6.5566 30.26 7.32368 29.4929 6.55661 31.027C5.78953 29.4929 6.5566 30.26 5.02245 29.4929Z" fill="url(#paint13_diamond_1_154)" fill-opacity="0.72"/>
<defs>
<radialGradient id="paint0_diamond_1_154" cx="0" cy="0" r="1" gradientUnits="userSpaceOnUse" gradientTransform="translate(7.79743 23.1652) rotate(90) scale(2.04743)">
<stop stop-color="#22D3EE"/>
<stop offset="1" stop-color="#0E7490" stop-opacity="0"/>
</radialGradient>
<radialGradient id="paint1_diamond_1_154" cx="0" cy="0" r="1" gradientUnits="userSpaceOnUse" gradientTransform="translate(11.4671 14.1583) rotate(90) scale(1.53345)">
<stop stop-color="#22D3EE"/>
<stop offset="1" stop-color="#0E7490" stop-opacity="0"/>
</radialGradient>
<radialGradient id="paint2_diamond_1_154" cx="0" cy="0" r="1" gradientUnits="userSpaceOnUse" gradientTransform="translate(22.4057 7.61565) rotate(90) scale(1.53345)">
<stop stop-color="#22D3EE" stop-opacity="0.37"/>
<stop offset="1" stop-color="#0E7490" stop-opacity="0"/>
</radialGradient>
<radialGradient id="paint3_diamond_1_154" cx="0" cy="0" r="1" gradientUnits="userSpaceOnUse" gradientTransform="translate(36.718 0.766117) rotate(90) scale(0.766727)">
<stop stop-color="#22D3EE" stop-opacity="0.44"/>
<stop offset="1" stop-color="#0E7490" stop-opacity="0.27"/>
</radialGradient>
<linearGradient id="paint4_linear_1_154" x1="6.86678" y1="8.53569" x2="39.5805" y2="41.2494" gradientUnits="userSpaceOnUse">
<stop stop-color="#7DD3FC"/>
<stop offset="1" stop-color="#1D4ED8"/>
</linearGradient>
<linearGradient id="paint5_linear_1_154" x1="6.86678" y1="8.53569" x2="39.5805" y2="41.2494" gradientUnits="userSpaceOnUse">
<stop stop-color="#7DD3FC"/>
<stop offset="1" stop-color="#1D4ED8"/>
</linearGradient>
<linearGradient id="paint6_linear_1_154" x1="6.86678" y1="8.53569" x2="39.5805" y2="41.2494" gradientUnits="userSpaceOnUse">
<stop stop-color="#7DD3FC"/>
<stop offset="1" stop-color="#1D4ED8"/>
</linearGradient>
<radialGradient id="paint7_diamond_1_154" cx="0" cy="0" r="1" gradientUnits="userSpaceOnUse" gradientTransform="translate(38.9671 14.0561) rotate(90) scale(2.04461)">
<stop stop-color="#22D3EE"/>
<stop offset="1" stop-color="#0E7490" stop-opacity="0"/>
</radialGradient>
<radialGradient id="paint8_diamond_1_154" cx="0" cy="0" r="1" gradientUnits="userSpaceOnUse" gradientTransform="translate(39.376 34.8089) rotate(90) scale(1.0223)">
<stop stop-color="#22D3EE" stop-opacity="0.7"/>
<stop offset="1" stop-color="#0E7490" stop-opacity="0"/>
</radialGradient>
<radialGradient id="paint9_diamond_1_154" cx="0" cy="0" r="1" gradientUnits="userSpaceOnUse" gradientTransform="translate(45.7143 8.02455) rotate(90) scale(1.0223)">
<stop stop-color="#22D3EE" stop-opacity="0.28"/>
<stop offset="1" stop-color="#0E7490" stop-opacity="0"/>
</radialGradient>
<radialGradient id="paint10_diamond_1_154" cx="0" cy="0" r="1" gradientUnits="userSpaceOnUse" gradientTransform="translate(39.376 34.2977) rotate(90) scale(1.0223)">
<stop stop-color="#22D3EE" stop-opacity="0.7"/>
<stop offset="1" stop-color="#0E7490" stop-opacity="0"/>
</radialGradient>
<radialGradient id="paint11_diamond_1_154" cx="0" cy="0" r="1" gradientUnits="userSpaceOnUse" gradientTransform="translate(45.7143 7.51339) rotate(90) scale(1.0223)">
<stop stop-color="#22D3EE" stop-opacity="0.37"/>
<stop offset="1" stop-color="#0E7490" stop-opacity="0"/>
</radialGradient>
<linearGradient id="paint12_linear_1_154" x1="21.6902" y1="19.781" x2="27.3128" y2="34.0933" gradientUnits="userSpaceOnUse">
<stop stop-color="#155E75" stop-opacity="0"/>
<stop offset="0.444399" stop-color="#155E75" stop-opacity="0"/>
<stop offset="0.895" stop-color="#99F6E4"/>
<stop offset="1" stop-color="#99F6E4"/>
</linearGradient>
<radialGradient id="paint13_diamond_1_154" cx="0" cy="0" r="1" gradientUnits="userSpaceOnUse" gradientTransform="translate(6.55661 29.4929) rotate(90) scale(1.53416)">
<stop stop-color="#22D3EE" stop-opacity="0.88"/>
<stop offset="1" stop-color="#0E7490" stop-opacity="0"/>
</radialGradient>
</defs>
</svg>
