<svg width="200" height="48" viewBox="0 0 200 48" fill="none" xmlns="http://www.w3.org/2000/svg">
<path d="M55.324 16.1H58.108V32.9H53.116L47.452 18.38H47.38V32.9H44.572V16.1H49.588L55.132 30.452H55.324V16.1ZM72.9805 18.5H64.2205V23.204H71.8045V25.364H64.2205V30.5H72.9805V32.9H61.4125V16.1H72.9805V18.5ZM85.7273 24.98V16.1H88.5353V24.98C88.5353 27.428 88.0073 29.404 86.9513 30.908C85.9113 32.396 84.3353 33.14 82.2233 33.14C80.1113 33.14 78.5353 32.396 77.4953 30.908C76.4553 29.42 75.9353 27.444 75.9353 24.98V16.1H78.7433V24.98C78.7433 26.612 78.9993 27.98 79.5113 29.084C80.0233 30.188 80.9273 30.74 82.2233 30.74C83.5353 30.74 84.4473 30.188 84.9593 29.084C85.4713 27.98 85.7273 26.612 85.7273 24.98ZM96.5005 25.532H93.7645V32.9H90.9565V16.1H96.9325C99.1565 16.1 100.724 16.572 101.636 17.516C102.564 18.46 103.028 19.564 103.028 20.828C103.028 21.948 102.732 22.916 102.14 23.732C101.548 24.532 100.62 25.068 99.3565 25.34L103.676 32.9H100.772L96.5005 25.532ZM93.7645 23.204H97.4125C98.3405 23.204 99.0365 23.004 99.5005 22.604C99.9805 22.204 100.22 21.628 100.22 20.876C100.22 19.292 99.1245 18.5 96.9325 18.5H93.7645V23.204ZM113.801 33.26C112.217 33.26 110.785 32.876 109.505 32.108C108.225 31.324 107.217 30.26 106.481 28.916C105.761 27.572 105.401 26.076 105.401 24.428C105.401 22.876 105.769 21.444 106.505 20.132C107.241 18.82 108.249 17.78 109.529 17.012C110.809 16.244 112.233 15.86 113.801 15.86C115.369 15.86 116.793 16.244 118.073 17.012C119.369 17.78 120.385 18.82 121.121 20.132C121.857 21.444 122.225 22.876 122.225 24.428C122.225 26.076 121.857 27.572 121.121 28.916C120.385 30.26 119.377 31.324 118.097 32.108C116.817 32.876 115.385 33.26 113.801 33.26ZM113.801 30.812C114.889 30.812 115.849 30.532 116.681 29.972C117.529 29.412 118.185 28.644 118.649 27.668C119.129 26.692 119.369 25.612 119.369 24.428C119.369 23.324 119.129 22.308 118.649 21.38C118.185 20.436 117.529 19.692 116.681 19.148C115.833 18.588 114.873 18.308 113.801 18.308C112.729 18.308 111.769 18.588 110.921 19.148C110.073 19.692 109.409 20.436 108.929 21.38C108.465 22.308 108.233 23.324 108.233 24.428C108.233 25.612 108.465 26.692 108.929 27.668C109.409 28.644 110.065 29.412 110.897 29.972C111.745 30.532 112.713 30.812 113.801 30.812ZM144.061 16.028V32.9H141.277V18.332H140.941L136.477 32.708H132.325L127.861 18.332H127.525V32.9H124.741V16.028H129.949L134.269 30.308H134.533L138.853 16.028H144.061ZM157.603 32.9L156.259 28.076H150.403L149.083 32.9H146.155L151.051 16.1H155.587L160.603 32.9H157.603ZM151.027 25.796H155.635L153.547 18.38H153.043L151.027 25.796ZM174.379 32.684C174.379 32.252 174.435 31.852 174.547 31.484C174.659 31.116 174.827 30.668 175.051 30.14C175.163 29.916 175.259 29.684 175.339 29.444L175.219 29.372C174.291 31.884 172.195 33.14 168.931 33.14C167.379 33.14 166.051 32.756 164.947 31.988C163.859 31.204 163.035 30.156 162.475 28.844C161.915 27.532 161.635 26.084 161.635 24.5C161.635 22.948 161.963 21.516 162.619 20.204C163.275 18.876 164.203 17.82 165.403 17.036C166.603 16.252 167.979 15.86 169.531 15.86C170.907 15.86 172.171 16.172 173.323 16.796C174.475 17.42 175.435 18.3 176.203 19.436L173.995 20.78C173.403 19.884 172.739 19.244 172.003 18.86C171.283 18.46 170.403 18.26 169.363 18.26C168.531 18.26 167.739 18.532 166.987 19.076C166.235 19.604 165.627 20.348 165.163 21.308C164.699 22.252 164.467 23.316 164.467 24.5C164.467 25.7 164.659 26.772 165.043 27.716C165.443 28.66 165.979 29.404 166.651 29.948C167.339 30.476 168.099 30.74 168.931 30.74C169.811 30.74 170.643 30.572 171.427 30.236C172.211 29.884 172.859 29.364 173.371 28.676C173.883 27.972 174.179 27.124 174.259 26.132V26.084H170.131V23.948H176.899V25.628L176.995 32.9H174.379V32.684ZM192.11 18.5H183.35V23.204H190.934V25.364H183.35V30.5H192.11V32.9H180.542V16.1H192.11V18.5Z" fill="url(#paint0_linear_3_57)"/>
<path d="M8.33492 22.8767C10.1499 21.9692 9.24242 22.8767 10.1499 21.0617C11.0574 22.8767 10.1499 21.9692 11.9649 22.8767C10.1499 23.7842 11.0574 22.8767 10.1499 24.6917C9.24242 22.8767 10.1499 23.7842 8.33492 22.8767Z" fill="url(#paint1_diamond_3_57)"/>
<path d="M12.0437 14.8923C13.403 14.2127 12.7234 14.8923 13.403 13.533C14.0827 14.8923 13.403 14.2127 14.7624 14.8923C13.403 15.572 14.0827 14.8923 13.403 16.2517C12.7234 14.8923 13.403 15.572 12.0437 14.8923Z" fill="url(#paint2_diamond_3_57)" fill-opacity="0.74"/>
<path d="M21.7405 9.09239C23.0998 8.4127 22.4202 9.09239 23.0998 7.73302C23.7795 9.09239 23.0998 8.4127 24.4592 9.09239C23.0998 9.77208 23.7795 9.09239 23.0998 10.4518C22.4202 9.09239 23.0998 9.77208 21.7405 9.09239Z" fill="url(#paint3_diamond_3_57)" fill-opacity="0.78"/>
<path d="M35.1077 3.02042C35.7874 2.68057 35.4476 3.02042 35.7874 2.34073C36.1272 3.02042 35.7874 2.68057 36.4671 3.02042C35.7874 3.36026 36.1272 3.02042 35.7874 3.7001C35.4476 3.02042 35.7874 3.36026 35.1077 3.02042Z" fill="url(#paint4_diamond_3_57)"/>
<path d="M9.32492 24.408C15.2158 20.3299 16.122 19.4236 20.1999 13.533C24.2783 19.4236 25.1845 20.3299 31.0749 24.408C25.1845 28.4861 24.2783 29.3924 20.1999 35.283C16.122 29.3924 15.2158 28.4861 9.32492 24.408Z" fill="url(#paint5_linear_3_57)"/>
<path d="M27.4501 33.4705C30.3956 31.4314 30.8487 30.9783 32.8876 28.033C34.9268 30.9783 35.3799 31.4314 38.3251 33.4705C35.3799 35.5096 34.9268 35.9627 32.8876 38.908C30.8487 35.9627 30.3956 35.5096 27.4501 33.4705Z" fill="url(#paint6_linear_3_57)"/>
<path d="M27.4501 15.3455C30.3956 13.3064 30.8487 12.8533 32.8876 9.90799C34.9268 12.8533 35.3799 13.3064 38.3251 15.3455C35.3799 17.3846 34.9268 17.8377 32.8876 20.783C30.8487 17.8377 30.3956 17.3846 27.4501 15.3455Z" fill="url(#paint7_linear_3_57)"/>
<path d="M35.9687 14.8017C37.7812 13.8954 36.8749 14.8017 37.7812 12.9892C38.6874 14.8017 37.7812 13.8954 39.5937 14.8017C37.7812 15.7079 38.6874 14.8017 37.7812 16.6142C36.8749 14.8017 37.7812 15.7079 35.9687 14.8017Z" fill="url(#paint8_diamond_3_57)"/>
<path d="M37.2374 33.1986C38.1437 32.7455 37.6906 33.1986 38.1437 32.2924C38.5968 33.1986 38.1437 32.7455 39.0499 33.1986C38.1437 33.6517 38.5968 33.1986 38.1437 34.1049C37.6906 33.1986 38.1437 33.6517 37.2374 33.1986Z" fill="url(#paint9_diamond_3_57)" fill-opacity="0.5"/>
<path d="M42.8562 9.45486C43.7624 9.00174 43.3093 9.45486 43.7624 8.54861C44.2155 9.45486 43.7624 9.00174 44.6687 9.45486C43.7624 9.90799 44.2155 9.45486 43.7624 10.3611C43.3093 9.45486 43.7624 9.90799 42.8562 9.45486Z" fill="url(#paint10_diamond_3_57)" fill-opacity="0.5"/>
<path d="M37.2374 32.7455C38.1437 32.2924 37.6906 32.7455 38.1437 31.8392C38.5968 32.7455 38.1437 32.2924 39.0499 32.7455C38.1437 33.1986 38.5968 32.7455 38.1437 33.6517C37.6906 32.7455 38.1437 33.1986 37.2374 32.7455Z" fill="url(#paint11_diamond_3_57)" fill-opacity="0.7"/>
<path d="M42.8562 9.00174C43.7624 8.54861 43.3093 9.00174 43.7624 8.09549C44.2155 9.00174 43.7624 8.54861 44.6687 9.00174C43.7624 9.45486 44.2155 9.00174 43.7624 9.90799C43.3093 9.00174 43.7624 9.45486 42.8562 9.00174Z" fill="url(#paint12_diamond_3_57)" fill-opacity="0.5"/>
<path d="M30.1004 23.0019C33.2359 22.1022 35.9078 21.584 37.7073 21.5266C39.5068 21.4691 40.3347 21.8756 40.0642 22.6838C39.7938 23.492 38.4399 24.6574 36.2098 26.0016C33.9797 27.3458 30.9962 28.7947 27.716 30.1267C24.4359 31.4587 21.0396 32.6003 18.0472 33.3768C15.0548 34.1533 12.6309 34.5219 11.1467 34.4263C9.66251 34.3306 9.19965 33.7759 9.829 32.8471C10.4583 31.9182 12.1452 30.6665 14.6314 29.2833" stroke="url(#paint13_linear_3_57)" stroke-width="1.35938" stroke-linecap="round"/>
<path d="M7.68996 28.4861C9.04996 27.8061 8.36996 28.4861 9.04996 27.1261C9.72996 28.4861 9.04996 27.8061 10.41 28.4861C9.04996 29.1661 9.72996 28.4861 9.04996 29.8461C8.36996 28.4861 9.04996 29.1661 7.68996 28.4861Z" fill="url(#paint14_diamond_3_57)" fill-opacity="0.72"/>
<defs>
<linearGradient id="paint0_linear_3_57" x1="43.3" y1="8.90002" x2="54.0429" y2="64.8368" gradientUnits="userSpaceOnUse">
<stop stop-color="#7DD3FC"/>
<stop offset="1" stop-color="#1D4ED8"/>
</linearGradient>
<radialGradient id="paint1_diamond_3_57" cx="0" cy="0" r="1" gradientUnits="userSpaceOnUse" gradientTransform="translate(10.1499 22.8767) rotate(90) scale(1.815)">
<stop stop-color="#22D3EE"/>
<stop offset="1" stop-color="#0E7490" stop-opacity="0"/>
</radialGradient>
<radialGradient id="paint2_diamond_3_57" cx="0" cy="0" r="1" gradientUnits="userSpaceOnUse" gradientTransform="translate(13.403 14.8923) rotate(90) scale(1.35938)">
<stop stop-color="#22D3EE"/>
<stop offset="1" stop-color="#0E7490" stop-opacity="0"/>
</radialGradient>
<radialGradient id="paint3_diamond_3_57" cx="0" cy="0" r="1" gradientUnits="userSpaceOnUse" gradientTransform="translate(23.0998 9.09239) rotate(90) scale(1.35938)">
<stop stop-color="#22D3EE" stop-opacity="0.37"/>
<stop offset="1" stop-color="#0E7490" stop-opacity="0"/>
</radialGradient>
<radialGradient id="paint4_diamond_3_57" cx="0" cy="0" r="1" gradientUnits="userSpaceOnUse" gradientTransform="translate(35.7874 3.02042) rotate(90) scale(0.679688)">
<stop stop-color="#22D3EE" stop-opacity="0.44"/>
<stop offset="1" stop-color="#0E7490" stop-opacity="0.27"/>
</radialGradient>
<linearGradient id="paint5_linear_3_57" x1="9.32492" y1="9.90799" x2="38.3249" y2="38.908" gradientUnits="userSpaceOnUse">
<stop stop-color="#7DD3FC"/>
<stop offset="1" stop-color="#1D4ED8"/>
</linearGradient>
<linearGradient id="paint6_linear_3_57" x1="9.32492" y1="9.90799" x2="38.3249" y2="38.908" gradientUnits="userSpaceOnUse">
<stop stop-color="#7DD3FC"/>
<stop offset="1" stop-color="#1D4ED8"/>
</linearGradient>
<linearGradient id="paint7_linear_3_57" x1="9.32492" y1="9.90799" x2="38.3249" y2="38.908" gradientUnits="userSpaceOnUse">
<stop stop-color="#7DD3FC"/>
<stop offset="1" stop-color="#1D4ED8"/>
</linearGradient>
<radialGradient id="paint8_diamond_3_57" cx="0" cy="0" r="1" gradientUnits="userSpaceOnUse" gradientTransform="translate(37.7812 14.8017) rotate(90) scale(1.8125)">
<stop stop-color="#22D3EE"/>
<stop offset="1" stop-color="#0E7490" stop-opacity="0"/>
</radialGradient>
<radialGradient id="paint9_diamond_3_57" cx="0" cy="0" r="1" gradientUnits="userSpaceOnUse" gradientTransform="translate(38.1437 33.1986) rotate(90) scale(0.90625)">
<stop stop-color="#22D3EE" stop-opacity="0.7"/>
<stop offset="1" stop-color="#0E7490" stop-opacity="0"/>
</radialGradient>
<radialGradient id="paint10_diamond_3_57" cx="0" cy="0" r="1" gradientUnits="userSpaceOnUse" gradientTransform="translate(43.7624 9.45486) rotate(90) scale(0.90625)">
<stop stop-color="#22D3EE" stop-opacity="0.28"/>
<stop offset="1" stop-color="#0E7490" stop-opacity="0"/>
</radialGradient>
<radialGradient id="paint11_diamond_3_57" cx="0" cy="0" r="1" gradientUnits="userSpaceOnUse" gradientTransform="translate(38.1437 32.7455) rotate(90) scale(0.90625)">
<stop stop-color="#22D3EE" stop-opacity="0.7"/>
<stop offset="1" stop-color="#0E7490" stop-opacity="0"/>
</radialGradient>
<radialGradient id="paint12_diamond_3_57" cx="0" cy="0" r="1" gradientUnits="userSpaceOnUse" gradientTransform="translate(43.7624 9.00174) rotate(90) scale(0.90625)">
<stop stop-color="#22D3EE" stop-opacity="0.37"/>
<stop offset="1" stop-color="#0E7490" stop-opacity="0"/>
</radialGradient>
<linearGradient id="paint13_linear_3_57" x1="22.4655" y1="19.8767" x2="27.4499" y2="32.5642" gradientUnits="userSpaceOnUse">
<stop stop-color="#155E75" stop-opacity="0"/>
<stop offset="0.444399" stop-color="#155E75" stop-opacity="0"/>
<stop offset="0.895" stop-color="#99F6E4"/>
<stop offset="1" stop-color="#99F6E4"/>
</linearGradient>
<radialGradient id="paint14_diamond_3_57" cx="0" cy="0" r="1" gradientUnits="userSpaceOnUse" gradientTransform="translate(9.04996 28.4861) rotate(90) scale(1.36)">
<stop stop-color="#22D3EE" stop-opacity="0.88"/>
<stop offset="1" stop-color="#0E7490" stop-opacity="0"/>
</radialGradient>
</defs>
</svg>
