<svg width="17" height="17" viewBox="0 0 17 17" fill="none" xmlns="http://www.w3.org/2000/svg">
<g clip-path="url(#clip0_7_94)">
<path fill-rule="evenodd" clip-rule="evenodd" d="M4.69474 0.351852H12.2969C15.0673 0.351852 16.6481 1.91625 16.6481 4.69485V12.3052C16.6481 15.0674 15.0755 16.6482 12.3051 16.6482H4.69474C1.91624 16.6482 0.351837 15.0674 0.351837 12.3052V4.69485C0.351837 1.91625 1.91624 0.351852 4.69474 0.351852ZM9.16814 9.17625H11.4821C11.8569 9.16815 12.1584 8.86665 12.1584 8.49185C12.1584 8.11705 11.8569 7.81555 11.4821 7.81555H9.16814V5.51775C9.16814 5.14295 8.86664 4.84145 8.49184 4.84145C8.11694 4.84145 7.81554 5.14295 7.81554 5.51775V7.81555H5.50954C5.33034 7.81555 5.15924 7.88885 5.02884 8.01115C4.90664 8.14145 4.83324 8.31175 4.83324 8.49185C4.83324 8.86665 5.13474 9.16815 5.50954 9.17625H7.81554V11.4823C7.81554 11.8571 8.11694 12.1586 8.49184 12.1586C8.86664 12.1586 9.16814 11.8571 9.16814 11.4823V9.17625Z" fill="url(#paint0_linear_7_94)"/>
</g>
<defs>
<linearGradient id="paint0_linear_7_94" x1="0.351837" y1="0.351852" x2="16.6481" y2="16.648" gradientUnits="userSpaceOnUse">
<stop stop-color="#7DD3FC"/>
<stop offset="1" stop-color="#1D4ED8"/>
</linearGradient>
<clipPath id="clip0_7_94">
<rect width="17" height="17" fill="white"/>
</clipPath>
</defs>
</svg>
