<svg width="24" height="24" viewBox="0 0 24 24" fill="none" xmlns="http://www.w3.org/2000/svg">
<g clip-path="url(#clip0_7_90)">
<path d="M23.5 12C23.5 5.64873 18.3513 0.5 12 0.5C5.64873 0.5 0.5 5.64873 0.5 12C0.5 18.3513 5.64873 23.5 12 23.5C18.3513 23.5 23.5 18.3513 23.5 12Z" fill="#EFF6FF"/>
<path d="M23.5 12C23.5 5.64873 18.3513 0.5 12 0.5C5.64873 0.5 0.5 5.64873 0.5 12C0.5 18.3513 5.64873 23.5 12 23.5C18.3513 23.5 23.5 18.3513 23.5 12Z" stroke="#DBEAFE"/>
<path fill-rule="evenodd" clip-rule="evenodd" d="M17.0965 7.39004L9.9365 14.3L8.0365 12.27C7.6865 11.94 7.1365 11.92 6.7365 12.2C6.3465 12.49 6.2365 13 6.4765 13.41L8.7265 17.07C8.9465 17.41 9.3265 17.62 9.7565 17.62C10.1665 17.62 10.5565 17.41 10.7765 17.07C11.1365 16.6 18.0065 8.41004 18.0065 8.41004C18.9065 7.49004 17.8165 6.68004 17.0965 7.38004V7.39004Z" fill="url(#paint0_linear_7_90)"/>
</g>
<defs>
<linearGradient id="paint0_linear_7_90" x1="6.3501" y1="7.1156" x2="16.7625" y2="19.0071" gradientUnits="userSpaceOnUse">
<stop stop-color="#7DD3FC"/>
<stop offset="1" stop-color="#1D4ED8"/>
</linearGradient>
<clipPath id="clip0_7_90">
<rect width="24" height="24" fill="white"/>
</clipPath>
</defs>
</svg>
